<svg width="215" height="352" viewBox="0 0 215 352" fill="none" xmlns="http://www.w3.org/2000/svg">
<path opacity="0.08" d="M63.0667 215.403C63.0667 199.483 66.4111 186.109 73.1 175.284C79.7889 164.458 91.2556 153.154 107.5 141.373C121.833 131.184 132.026 122.428 138.078 115.104C144.448 107.463 147.633 98.5473 147.633 88.3582C147.633 78.1692 143.811 70.5274 136.167 65.4328C128.841 60.0199 118.489 57.3134 105.111 57.3134C91.7333 57.3134 78.5148 59.3831 65.4556 63.5224C52.3963 67.6617 39.0185 73.2338 25.3222 80.2388L0 29.1343C15.6074 20.5373 32.4889 13.5323 50.6444 8.11941C68.8 2.70647 88.7074 0 110.367 0C143.493 0 169.133 7.9602 187.289 23.8806C205.763 39.801 215 60.0199 215 84.5373C215 97.592 212.93 108.896 208.789 118.448C204.648 128 198.437 136.915 190.156 145.194C181.874 153.154 171.522 161.751 159.1 170.985C149.863 177.672 142.696 183.403 137.6 188.179C132.504 192.955 129 197.572 127.089 202.03C125.496 206.488 124.7 212.06 124.7 218.746V232.597H63.0667V215.403ZM55.4222 312.358C55.4222 297.711 59.4037 287.522 67.3667 281.791C75.3296 275.741 85.0444 272.716 96.5111 272.716C107.659 272.716 117.215 275.741 125.178 281.791C133.141 287.522 137.122 297.711 137.122 312.358C137.122 326.368 133.141 336.557 125.178 342.925C117.215 348.975 107.659 352 96.5111 352C85.0444 352 75.3296 348.975 67.3667 342.925C59.4037 336.557 55.4222 326.368 55.4222 312.358Z" fill="#ffffff"/>
<path d="M28.8 186.8C26.1333 186.8 24 185.88 22.4 184.04C20.8 182.173 20 179.4 20 175.72C20 172.04 20.8 169.267 22.4 167.4C24.0267 165.507 26.1733 164.56 28.84 164.56C30.4933 164.56 31.84 164.867 32.88 165.48C33.9467 166.093 34.8133 166.84 35.48 167.72H35.72C35.6933 167.373 35.64 166.867 35.56 166.2C35.5067 165.507 35.48 164.96 35.48 164.56V156H39V186.4H36.16L35.64 183.52H35.48C34.84 184.427 33.9867 185.2 32.92 185.84C31.8533 186.48 30.48 186.8 28.8 186.8ZM29.36 183.88C31.6267 183.88 33.2133 183.267 34.12 182.04C35.0533 180.787 35.52 178.907 35.52 176.4V175.76C35.52 173.093 35.08 171.053 34.2 169.64C33.32 168.2 31.6933 167.48 29.32 167.48C27.4267 167.48 26 168.24 25.04 169.76C24.1067 171.253 23.64 173.267 23.64 175.8C23.64 178.36 24.1067 180.347 25.04 181.76C26 183.173 27.44 183.88 29.36 183.88Z" fill="white"/>
<path d="M54.0894 164.56C55.9294 164.56 57.5027 164.96 58.8094 165.76C60.1427 166.56 61.156 167.693 61.8494 169.16C62.5694 170.6 62.9294 172.293 62.9294 174.24V176.36H48.2494C48.3027 178.787 48.916 180.64 50.0894 181.92C51.2894 183.173 52.956 183.8 55.0894 183.8C56.4494 183.8 57.6494 183.68 58.6894 183.44C59.756 183.173 60.8494 182.8 61.9694 182.32V185.4C60.876 185.88 59.796 186.227 58.7294 186.44C57.6627 186.68 56.396 186.8 54.9294 186.8C52.9027 186.8 51.1027 186.387 49.5294 185.56C47.9827 184.733 46.7694 183.507 45.8894 181.88C45.036 180.227 44.6094 178.213 44.6094 175.84C44.6094 173.493 44.996 171.48 45.7694 169.8C46.5694 168.12 47.676 166.827 49.0894 165.92C50.5294 165.013 52.196 164.56 54.0894 164.56ZM54.0494 167.44C52.3694 167.44 51.036 167.987 50.0494 169.08C49.0894 170.147 48.516 171.64 48.3294 173.56H59.2494C59.2227 171.747 58.796 170.28 57.9694 169.16C57.1427 168.013 55.836 167.44 54.0494 167.44Z" fill="white"/>
<path d="M72.3263 186.4L64.2062 164.96H67.9663L72.5262 177.6C72.7396 178.187 72.9662 178.84 73.2062 179.56C73.4463 180.28 73.6596 180.973 73.8462 181.64C74.0329 182.28 74.1662 182.827 74.2463 183.28H74.4062C74.5129 182.827 74.6596 182.267 74.8462 181.6C75.0596 180.933 75.2862 180.24 75.5262 179.52C75.7929 178.8 76.0196 178.16 76.2062 177.6L80.7663 164.96H84.5263L76.3662 186.4H72.3263Z" fill="white"/>
<path d="M85.7972 184.24C85.7972 183.253 86.0372 182.56 86.5172 182.16C86.9972 181.76 87.5705 181.56 88.2372 181.56C88.9305 181.56 89.5172 181.76 89.9972 182.16C90.5039 182.56 90.7572 183.253 90.7572 184.24C90.7572 185.2 90.5039 185.893 89.9972 186.32C89.5172 186.747 88.9305 186.96 88.2372 186.96C87.5705 186.96 86.9972 186.747 86.5172 186.32C86.0372 185.893 85.7972 185.2 85.7972 184.24Z" fill="white"/>
<path d="M109.86 186.84C109.86 185.72 109.94 184.627 110.1 183.56H109.86C109.3 184.467 108.527 185.24 107.54 185.88C106.554 186.493 105.26 186.8 103.66 186.8C101.207 186.8 99.2203 185.853 97.7003 183.96C96.1803 182.04 95.4203 179.227 95.4203 175.52C95.4203 171.787 96.1936 168.96 97.7403 167.04C99.287 165.12 101.3 164.16 103.78 164.16C105.38 164.16 106.674 164.467 107.66 165.08C108.674 165.693 109.487 166.453 110.1 167.36H110.26L110.78 164.56H115.82V196H109.86V186.84ZM105.78 182.12C107.434 182.12 108.58 181.64 109.22 180.68C109.887 179.693 110.234 178.227 110.26 176.28V175.56C110.26 173.427 109.927 171.8 109.26 170.68C108.62 169.56 107.434 169 105.7 169C104.287 169 103.234 169.573 102.54 170.72C101.847 171.84 101.5 173.467 101.5 175.6C101.5 179.947 102.927 182.12 105.78 182.12Z" fill="white"/>
<path d="M142.093 164.56V186.4H137.533L136.733 183.6H136.413C135.719 184.72 134.759 185.533 133.533 186.04C132.333 186.547 131.053 186.8 129.693 186.8C127.346 186.8 125.466 186.173 124.053 184.92C122.639 183.64 121.933 181.6 121.933 178.8V164.56H127.893V177.32C127.893 178.867 128.173 180.04 128.733 180.84C129.293 181.64 130.186 182.04 131.413 182.04C133.226 182.04 134.466 181.427 135.133 180.2C135.799 178.947 136.133 177.16 136.133 174.84V164.56H142.093Z" fill="white"/>
<path d="M151.342 156C152.222 156 152.982 156.213 153.622 156.64C154.262 157.04 154.582 157.8 154.582 158.92C154.582 160.013 154.262 160.773 153.622 161.2C152.982 161.627 152.222 161.84 151.342 161.84C150.435 161.84 149.662 161.627 149.022 161.2C148.409 160.773 148.102 160.013 148.102 158.92C148.102 157.8 148.409 157.04 149.022 156.64C149.662 156.213 150.435 156 151.342 156ZM154.302 164.56V186.4H148.342V164.56H154.302Z" fill="white"/>
<path d="M175.729 186.4H158.489V182.88L168.609 169.12H159.089V164.56H175.369V168.44L165.529 181.84H175.729V186.4Z" fill="white"/>
<path d="M194.781 192.56H176.861V190H194.781V192.56Z" fill="white"/>
<path d="M85.7972 184.24C85.7972 183.253 86.0372 182.56 86.5172 182.16C86.9972 181.76 87.5705 181.56 88.2372 181.56C88.9305 181.56 89.5172 181.76 89.9972 182.16C90.5038 182.56 90.7572 183.253 90.7572 184.24C90.7572 185.2 90.5038 185.893 89.9972 186.32C89.5172 186.747 88.9305 186.96 88.2372 186.96C87.5705 186.96 86.9972 186.747 86.5172 186.32C86.0372 185.893 85.7972 185.2 85.7972 184.24Z" fill="#04D361"/>
<path d="M194.781 192.56H176.861V190H194.781V192.56Z" fill="#04D361"/>
<defs>
<linearGradient id="paint0_linear" x1="107.5" y1="0" x2="107.5" y2="352" gradientUnits="userSpaceOnUse">
<stop/>
<stop offset="1" stop-opacity="0.4"/>
</linearGradient>
</defs>
</svg>
